<svg width="512" height="512" viewBox="0 0 512 512" fill="none" xmlns="http://www.w3.org/2000/svg">
<rect width="512" height="512" fill="#151515"/>
<path d="M124.928 308.711H194.123C198.061 344.986 216.062 358.589 258.817 358.589C297.071 358.589 316.198 346.686 316.198 323.448C316.198 302.477 302.696 292.275 259.379 284.906L226.188 279.238C162.619 268.469 131.116 238.996 131.116 190.819C131.116 135.841 174.433 102.4 251.504 102.4C334.2 102.4 376.954 135.274 379.767 201.588H312.822C311.135 165.88 290.32 153.411 251.504 153.411C217.75 153.411 200.873 164.747 200.873 187.418C200.873 207.823 215.5 216.892 249.253 223.126L285.82 228.794C356.139 241.83 386.517 267.903 386.517 317.78C386.517 376.726 339.263 409.6 257.692 409.6C176.121 409.6 128.866 376.159 124.928 308.711Z" fill="#ECE4D6"/>
</svg>
